<svg width="60" height="60" viewBox="0 0 60 60" fill="none" xmlns="http://www.w3.org/2000/svg">
<g clip-path="url(#clip0_12_4249)">
<path d="M13.0554 10.5731C13.0554 9.69775 13.765 8.98814 14.6404 8.98814C15.5157 8.98814 16.2253 9.69775 16.2253 10.5731V37.5671C16.2253 38.4423 15.5157 39.152 14.6404 39.152C13.765 39.152 13.0554 38.4423 13.0554 37.5671V10.5731Z" fill="#353739"/>
<path d="M28.855 10.5731C28.855 9.69775 29.5645 8.98814 30.4399 8.98814C31.3153 8.98814 32.0248 9.69775 32.0248 10.5731V47.6214C32.0248 48.4969 31.3153 49.2066 30.4399 49.2066C29.5645 49.2066 28.855 48.4969 28.855 47.6214V10.5731Z" fill="#353739"/>
<path d="M43.2183 20.6277C43.2183 19.7523 43.9279 19.0427 44.8032 19.0427C45.6786 19.0427 46.3883 19.7523 46.3883 20.6277V37.5668C46.3883 38.4423 45.6786 39.152 44.8032 39.152C43.9279 39.152 43.2183 38.4423 43.2183 37.5668V20.6277Z" fill="#353739"/>
<path d="M36.2837 37.8146C36.2837 36.9392 36.9934 36.2295 37.8686 36.2295H55.3031C56.1785 36.2295 56.8882 36.9392 56.8882 37.8146C56.8882 38.6898 56.1785 39.3995 55.3031 39.3995H37.8686C36.9934 39.3995 36.2837 38.6898 36.2837 37.8146Z" fill="#353739"/>
<path d="M3 37.8641C3 36.9888 3.70961 36.2792 4.58496 36.2792H29.8017C30.6771 36.2792 31.3866 36.9888 31.3866 37.8641C31.3866 38.7395 30.6771 39.4492 29.8017 39.4492H4.58496C3.70961 39.4492 3 38.7395 3 37.8641Z" fill="#353739"/>
<path d="M3 20.6277C3 19.7523 3.70961 19.0427 4.58496 19.0427H14.3424C15.2177 19.0427 15.9273 19.7523 15.9273 20.6277C15.9273 21.503 15.2177 22.2126 14.3424 22.2126H4.58496C3.70961 22.2126 3 21.503 3 20.6277Z" fill="#353739"/>
<path d="M36.0867 20.6277C36.0867 19.7523 36.7961 19.0427 37.6716 19.0427H44.3601C45.2355 19.0427 45.945 19.7523 45.945 20.6277C45.945 21.503 45.2355 22.2126 44.3601 22.2126H37.6716C36.7961 22.2126 36.0867 21.503 36.0867 20.6277Z" fill="#353739"/>
<path d="M20.2385 20.6277C20.2385 19.7523 20.9481 19.0427 21.8235 19.0427H30.0969C30.9724 19.0427 31.6818 19.7523 31.6818 20.6277C31.6818 21.503 30.9724 22.2126 30.0969 22.2126H21.8235C20.9481 22.2126 20.2385 21.503 20.2385 20.6277Z" fill="#353739"/>
<path d="M3 29.2459C3 28.3705 3.70961 27.661 4.58496 27.661H14.3424C15.2177 27.661 15.9273 28.3705 15.9273 29.2459C15.9273 30.1213 15.2177 30.8308 14.3424 30.8308H4.58496C3.70961 30.8308 3 30.1213 3 29.2459Z" fill="#353739"/>
<path d="M29.696 29.2459C29.696 28.3705 30.4057 27.661 31.2809 27.661H54.5641C55.4393 27.661 56.149 28.3705 56.149 29.2459C56.149 30.1213 55.4393 30.8308 54.5641 30.8308H31.2809C30.4057 30.8308 29.696 30.1213 29.696 29.2459Z" fill="#353739"/>
<path d="M20.2385 29.2459C20.2385 28.3705 20.9481 27.661 21.8235 27.661H30.1445C31.0199 27.661 31.7294 28.3705 31.7294 29.2459C31.7294 30.1213 31.0199 30.8308 30.1445 30.8308H21.8235C20.9481 30.8308 20.2385 30.1213 20.2385 29.2459Z" fill="#353739"/>
<path d="M35.1941 48.2159C35.1941 50.8419 33.0653 52.9708 30.4392 52.9708C27.8132 52.9708 25.6843 50.8419 25.6843 48.2159C25.6843 45.5898 27.8132 43.461 30.4392 43.461C33.0653 43.461 35.1941 45.5898 35.1941 48.2159Z" fill="#353739"/>
<path d="M19.8423 10.8703C19.8423 13.4963 17.7134 15.6251 15.0874 15.6251C12.4613 15.6251 10.3325 13.4963 10.3325 10.8703C10.3325 8.24421 12.4613 6.11539 15.0874 6.11539C17.7134 6.11539 19.8423 8.24421 19.8423 10.8703Z" fill="#353739"/>
</g>
<defs>
<clipPath id="clip0_12_4249">
<rect width="54" height="47.7692" fill="white" transform="translate(3 6.11539)"/>
</clipPath>
</defs>
</svg>
